<?xml version="1.0" encoding="UTF-8"?>
<svg width="37px" height="37px" viewBox="0 0 37 37" version="1.1" xmlns="http://www.w3.org/2000/svg" xmlns:xlink="http://www.w3.org/1999/xlink">
    <!-- Generator: Sketch 43.1 (39012) - http://www.bohemiancoding.com/sketch -->
    <title>square</title>
    <desc>Created with Sketch.</desc>
    <defs></defs>
    <g id="Page-1" stroke="none" stroke-width="1" fill="none" fill-rule="evenodd">
        <g id="square">
            <rect id="Rectangle-3" fill="#0077B5" x="0" y="0" width="37" height="37"></rect>
            <path d="M8.29930556,5.09366667 C10.05475,5.09366667 11.4802778,6.51919444 11.4802778,8.27566667 C11.4802778,10.0331667 10.05475,11.4586944 8.29930556,11.4586944 C6.53666667,11.4586944 5.11627778,10.0331667 5.11627778,8.27566667 C5.11627778,6.51919444 6.53666667,5.09366667 8.29930556,5.09366667 L8.29930556,5.09366667 Z M5.55205556,31.5281111 L11.0445,31.5281111 L11.0445,13.8708889 L5.55205556,13.8708889 L5.55205556,31.5281111 Z" id="Fill-12" fill="#FFFFFF"></path>
            <path d="M14.4875556,13.8708889 L19.7477222,13.8708889 L19.7477222,16.2851389 L19.82275,16.2851389 C20.5545278,14.8966111 22.3459444,13.4330556 25.0161111,13.4330556 C30.57125,13.4330556 31.598,17.0888611 31.598,21.8443889 L31.598,31.5281111 L26.1117222,31.5281111 L26.1117222,22.9410278 C26.1117222,20.8936944 26.07575,18.2595 23.2596389,18.2595 C20.4044722,18.2595 19.9686944,20.4908056 19.9686944,22.7950833 L19.9686944,31.5281111 L14.4875556,31.5281111 L14.4875556,13.8708889" id="Fill-13" fill="#FFFFFF"></path>
        </g>
    </g>
</svg>