<?xml version="1.0" encoding="UTF-8"?>
<svg width="209px" height="37px" viewBox="0 0 209 37" version="1.1" xmlns="http://www.w3.org/2000/svg" xmlns:xlink="http://www.w3.org/1999/xlink">
    <style>
        #Page-1:hover #Rectangle {
          fill: #0369A0;
        }
        svg {
          cursor: pointer;
        }
    </style>
    <!-- Generator: Sketch 43.1 (39012) - http://www.bohemiancoding.com/sketch -->
    <title>button</title>
    <desc>Created with Sketch.</desc>
    <defs></defs>
    <g id="Page-1" stroke="none" stroke-width="1" fill="none" fill-rule="evenodd">
        <g id="button">
            <rect id="Rectangle" fill="#0077B5" x="12" y="0" width="196.305556" height="37" rx="2"></rect>
            <g id="Group-11">
                <path d="M34.262,0 L2.72977778,0 C1.22408333,0 0,1.19427778 0,2.66811111 L0,34.3298333 C0,35.8036667 1.22408333,37 2.72977778,37 L34.262,37 C35.7718056,37 36.9989722,35.8036667 36.9989722,34.3298333 L36.9989722,2.66811111 C36.9989722,1.19427778 35.7718056,0 34.262,0" id="Fill-10" fill="#0077B5"></path>
                <path d="M8.29930556,5.09366667 C10.05475,5.09366667 11.4802778,6.51919444 11.4802778,8.27566667 C11.4802778,10.0331667 10.05475,11.4586944 8.29930556,11.4586944 C6.53666667,11.4586944 5.11627778,10.0331667 5.11627778,8.27566667 C5.11627778,6.51919444 6.53666667,5.09366667 8.29930556,5.09366667 L8.29930556,5.09366667 Z M5.55205556,31.5281111 L11.0445,31.5281111 L11.0445,13.8708889 L5.55205556,13.8708889 L5.55205556,31.5281111 Z" id="Fill-12" fill="#FFFFFF"></path>
                <path d="M14.4875556,13.8708889 L19.7477222,13.8708889 L19.7477222,16.2851389 L19.82275,16.2851389 C20.5545278,14.8966111 22.3459444,13.4330556 25.0161111,13.4330556 C30.57125,13.4330556 31.598,17.0888611 31.598,21.8443889 L31.598,31.5281111 L26.1117222,31.5281111 L26.1117222,22.9410278 C26.1117222,20.8936944 26.07575,18.2595 23.2596389,18.2595 C20.4044722,18.2595 19.9686944,20.4908056 19.9686944,22.7950833 L19.9686944,31.5281111 L14.4875556,31.5281111 L14.4875556,13.8708889" id="Fill-13" fill="#FFFFFF"></path>
            </g>
            <path d="M55.592,20.432 L53.288,20.432 L53.288,20.896 C53.288,21.9520053 53.5679972,22.7626638 54.128,23.328 C54.6880028,23.8933362 55.6186602,24.176 56.92,24.176 C58.1680062,24.176 59.1413298,23.9013361 59.84,23.352 C60.5386702,22.8026639 60.888,21.9253394 60.888,20.72 C60.888,20.3679982 60.8560003,20.0480014 60.792,19.76 C60.7279997,19.4719986 60.6133342,19.2080012 60.448,18.968 C60.2826658,18.7279988 60.0613347,18.504001 59.784,18.296 C59.5066653,18.087999 59.1493355,17.888001 58.712,17.696 L56.936,16.928 C56.4453309,16.7253323 56.1253341,16.5040012 55.976,16.264 C55.8266659,16.0239988 55.752,15.7280018 55.752,15.376 C55.752,15.2053325 55.7706665,15.0400008 55.808,14.88 C55.8453335,14.7199992 55.9146662,14.5786673 56.016,14.456 C56.1173338,14.3333327 56.2533325,14.234667 56.424,14.16 C56.5946675,14.085333 56.8079987,14.048 57.064,14.048 C57.5120022,14.048 57.831999,14.1946652 58.024,14.488 C58.216001,14.7813348 58.312,15.1999973 58.312,15.744 L60.52,15.744 L60.52,15.424 C60.52,14.8799973 60.4320009,14.4133353 60.256,14.024 C60.0799991,13.6346647 59.8346682,13.3146679 59.52,13.064 C59.2053318,12.8133321 58.8320022,12.6320006 58.4,12.52 C57.9679978,12.4079994 57.4960026,12.352 56.984,12.352 C55.8853278,12.352 55.0213365,12.6293306 54.392,13.184 C53.7626635,13.7386694 53.448,14.5813277 53.448,15.712 C53.448,16.1813357 53.5066661,16.5946649 53.624,16.952 C53.7413339,17.3093351 53.9253321,17.6239986 54.176,17.896 C54.4266679,18.1680014 54.7386648,18.4053323 55.112,18.608 C55.4853352,18.8106677 55.9279974,18.9973325 56.44,19.168 C56.8240019,19.2960006 57.1466654,19.4213327 57.408,19.544 C57.6693346,19.6666673 57.8799992,19.8026659 58.04,19.952 C58.2000008,20.1013341 58.3146663,20.2693324 58.384,20.456 C58.4533337,20.6426676 58.488,20.8639987 58.488,21.12 C58.488,21.6000024 58.3466681,21.9546655 58.064,22.184 C57.7813319,22.4133345 57.4640018,22.528 57.112,22.528 C56.8133318,22.528 56.5653343,22.4853338 56.368,22.4 C56.1706657,22.3146662 56.0133339,22.1973341 55.896,22.048 C55.7786661,21.8986659 55.6986669,21.7146678 55.656,21.496 C55.6133331,21.2773322 55.592,21.034668 55.592,20.768 L55.592,20.432 Z M62.056,12.448 L62.056,14.336 L64.264,14.336 L64.264,12.448 L62.056,12.448 Z M62.056,15.392 L62.056,24 L64.264,24 L64.264,15.392 L62.056,15.392 Z M67.848,19.968 C67.848,20.2666682 67.8613332,20.549332 67.888,20.816 C67.9146668,21.082668 67.9679996,21.319999 68.048,21.528 C68.1280004,21.736001 68.2399993,21.9013327 68.384,22.024 C68.5280007,22.1466673 68.7173322,22.208 68.952,22.208 C69.1866678,22.208 69.3813326,22.1466673 69.536,22.024 C69.6906674,21.9013327 69.8133329,21.7333344 69.904,21.52 C69.9946671,21.3066656 70.0586665,21.0480015 70.096,20.744 C70.1333335,20.4399985 70.152,20.1066685 70.152,19.744 C70.152,18.6986614 70.0693342,17.9573355 69.904,17.52 C69.7386658,17.0826645 69.4373355,16.864 69,16.864 C68.7546654,16.864 68.5573341,16.9173328 68.408,17.024 C68.2586659,17.1306672 68.1413338,17.3039988 68.056,17.544 C67.9706662,17.7840012 67.9146668,18.103998 67.888,18.504 C67.8613332,18.904002 67.848,19.3919971 67.848,19.968 Z M72.264,15.392 L72.264,23.568 C72.264,24.6773389 71.9893361,25.5093306 71.44,26.064 C70.8906639,26.6186694 69.9706731,26.896 68.68,26.896 C67.7413286,26.896 67.0186692,26.696002 66.512,26.296 C66.0053308,25.895998 65.752,25.3280037 65.752,24.592 L67.864,24.592 C67.864,24.8693347 67.9759989,25.0879992 68.2,25.248 C68.3066672,25.322667 68.4213327,25.3813331 68.544,25.424 C68.6666673,25.4666669 68.7973326,25.488 68.936,25.488 C69.3840022,25.488 69.6986658,25.3440014 69.88,25.056 C70.0613342,24.7679986 70.152,24.4106688 70.152,23.984 L70.152,22.848 L70.12,22.848 C69.8959989,23.1680016 69.621335,23.423999 69.296,23.616 C68.970665,23.808001 68.6320018,23.904 68.28,23.904 C67.405329,23.904 66.7466689,23.57067 66.304,22.904 C65.8613311,22.23733 65.64,21.1200078 65.64,19.552 C65.64,19.0506642 65.669333,18.5386693 65.728,18.016 C65.786667,17.4933307 65.9093324,17.0213354 66.096,16.6 C66.2826676,16.1786646 66.5546649,15.834668 66.912,15.568 C67.2693351,15.301332 67.7466637,15.168 68.344,15.168 C68.6533349,15.168 68.9733317,15.2533325 69.304,15.424 C69.6346683,15.5946675 69.9066656,15.9039978 70.12,16.352 L70.152,16.352 L70.152,15.392 L72.264,15.392 Z M73.816,15.392 L73.816,24 L76.024,24 L76.024,18.288 C76.024,17.3386619 76.4133294,16.864 77.192,16.864 C77.5226683,16.864 77.7626659,16.9519991 77.912,17.128 C78.0613341,17.3040009 78.136,17.6159978 78.136,18.064 L78.136,24 L80.344,24 L80.344,17.616 C80.344,16.7519957 80.1546686,16.1280019 79.776,15.744 C79.3973314,15.3599981 78.8560035,15.168 78.152,15.168 C77.6719976,15.168 77.2453352,15.2666657 76.872,15.464 C76.4986648,15.6613343 76.1946678,15.9733312 75.96,16.4 L75.928,16.4 L75.928,15.392 L73.816,15.392 Z M85.736,12.448 L85.736,14.336 L87.944,14.336 L87.944,12.448 L85.736,12.448 Z M85.736,15.392 L85.736,24 L87.944,24 L87.944,15.392 L85.736,15.392 Z M89.496,15.392 L89.496,24 L91.704,24 L91.704,18.288 C91.704,17.3386619 92.0933294,16.864 92.872,16.864 C93.2026683,16.864 93.4426659,16.9519991 93.592,17.128 C93.7413341,17.3040009 93.816,17.6159978 93.816,18.064 L93.816,24 L96.024,24 L96.024,17.616 C96.024,16.7519957 95.8346686,16.1280019 95.456,15.744 C95.0773314,15.3599981 94.5360035,15.168 93.832,15.168 C93.3519976,15.168 92.9253352,15.2666657 92.552,15.464 C92.1786648,15.6613343 91.8746678,15.9733312 91.64,16.4 L91.608,16.4 L91.608,15.392 L89.496,15.392 Z M100.712,15.392 L102.584,24 L105.144,24 L106.216,17.888 L106.248,17.888 L107.384,24 L109.896,24 L111.752,15.392 L109.64,15.392 L108.6,21.504 L108.568,21.504 L107.432,15.392 L105.032,15.392 L103.96,21.504 L103.928,21.504 L102.92,15.392 L100.712,15.392 Z M112.68,12.448 L112.68,14.336 L114.888,14.336 L114.888,12.448 L112.68,12.448 Z M112.68,15.392 L112.68,24 L114.888,24 L114.888,15.392 L112.68,15.392 Z M116.92,12.928 L116.92,15.392 L115.8,15.392 L115.8,16.896 L116.92,16.896 L116.92,21.824 C116.92,22.2613355 116.946666,22.6239986 117,22.912 C117.053334,23.2000014 117.151999,23.4319991 117.296,23.608 C117.440001,23.7840009 117.647999,23.901333 117.92,23.96 C118.192001,24.018667 118.541331,24.048 118.968,24.048 C119.224001,24.048 119.466666,24.0400001 119.696,24.024 C119.925334,24.0079999 120.162665,24 120.408,24 L120.408,22.464 C120.333333,22.4746667 120.253334,22.4826666 120.168,22.488 C120.082666,22.4933334 119.997334,22.496 119.912,22.496 C119.591998,22.496 119.381334,22.4240007 119.28,22.28 C119.178666,22.1359993 119.128,21.893335 119.128,21.552 L119.128,16.896 L120.408,16.896 L120.408,15.392 L119.128,15.392 L119.128,12.928 L116.92,12.928 Z M121.176,12.576 L121.176,24 L123.384,24 L123.384,18.288 C123.384,17.3386619 123.773329,16.864 124.552,16.864 C124.882668,16.864 125.122666,16.9519991 125.272,17.128 C125.421334,17.3040009 125.496,17.6159978 125.496,18.064 L125.496,24 L127.704,24 L127.704,17.616 C127.704,16.7519957 127.514669,16.1280019 127.136,15.744 C126.757331,15.3599981 126.216004,15.168 125.512,15.168 C124.541328,15.168 123.842669,15.5359963 123.416,16.272 L123.384,16.272 L123.384,12.576 L121.176,12.576 Z M133.08,24 L139.464,24 L139.464,22.112 L135.384,22.112 L135.384,12.576 L133.08,12.576 L133.08,24 Z M140.504,12.448 L140.504,14.336 L142.712,14.336 L142.712,12.448 L140.504,12.448 Z M140.504,15.392 L140.504,24 L142.712,24 L142.712,15.392 L140.504,15.392 Z M144.264,15.392 L144.264,24 L146.472,24 L146.472,18.288 C146.472,17.3386619 146.861329,16.864 147.64,16.864 C147.970668,16.864 148.210666,16.9519991 148.36,17.128 C148.509334,17.3040009 148.584,17.6159978 148.584,18.064 L148.584,24 L150.792,24 L150.792,17.616 C150.792,16.7519957 150.602669,16.1280019 150.224,15.744 C149.845331,15.3599981 149.304004,15.168 148.6,15.168 C148.119998,15.168 147.693335,15.2666657 147.32,15.464 C146.946665,15.6613343 146.642668,15.9733312 146.408,16.4 L146.376,16.4 L146.376,15.392 L144.264,15.392 Z M154.552,12.576 L152.344,12.576 L152.344,24 L154.552,24 L154.552,21.488 L155.336,20.464 L157.176,24 L159.608,24 L156.76,18.784 L159.24,15.392 L156.808,15.392 L154.584,18.608 L154.552,18.608 L154.552,12.576 Z M164.408,18.72 C164.397333,18.3893317 164.376,18.0986679 164.344,17.848 C164.312,17.5973321 164.256,17.3840009 164.176,17.208 C164.096,17.0319991 163.984001,16.8986671 163.84,16.808 C163.695999,16.7173329 163.512001,16.672 163.288,16.672 C163.063999,16.672 162.880001,16.7226662 162.736,16.824 C162.591999,16.9253338 162.477334,17.0586658 162.392,17.224 C162.306666,17.3893342 162.245334,17.5733323 162.208,17.776 C162.170666,17.9786677 162.152,18.1813323 162.152,18.384 L162.152,18.72 L164.408,18.72 Z M162.152,20.032 L162.152,20.72 C162.152,20.9760013 162.170666,21.2239988 162.208,21.464 C162.245334,21.7040012 162.306666,21.9173324 162.392,22.104 C162.477334,22.2906676 162.589333,22.4399994 162.728,22.552 C162.866667,22.6640006 163.037332,22.72 163.24,22.72 C163.613335,22.72 163.885332,22.586668 164.056,22.32 C164.226668,22.053332 164.344,21.6480027 164.408,21.104 L166.392,21.104 C166.349333,22.1066717 166.082669,22.8693307 165.592,23.392 C165.101331,23.9146693 164.328005,24.176 163.272,24.176 C162.471996,24.176 161.848002,24.042668 161.4,23.776 C160.951998,23.509332 160.621334,23.1573355 160.408,22.72 C160.194666,22.2826645 160.064,21.7920027 160.016,21.248 C159.968,20.7039973 159.944,20.1600027 159.944,19.616 C159.944,19.0399971 159.984,18.485336 160.064,17.952 C160.144,17.418664 160.303999,16.9440021 160.544,16.528 C160.784001,16.1119979 161.127998,15.7813346 161.576,15.536 C162.024002,15.2906654 162.62133,15.168 163.368,15.168 C164.008003,15.168 164.533331,15.271999 164.944,15.48 C165.354669,15.688001 165.677332,15.9813314 165.912,16.36 C166.146668,16.7386686 166.306666,17.1973306 166.392,17.736 C166.477334,18.2746694 166.52,18.8746634 166.52,19.536 L166.52,20.032 L162.152,20.032 Z M172.088,23.088 L172.056,23.088 C171.810665,23.4933354 171.536002,23.7759992 171.232,23.936 C170.927998,24.0960008 170.552002,24.176 170.104,24.176 C169.197329,24.176 168.530669,23.8293368 168.104,23.136 C167.677331,22.4426632 167.464,21.296008 167.464,19.696 C167.464,18.095992 167.677331,16.9413369 168.104,16.232 C168.530669,15.5226631 169.197329,15.168 170.104,15.168 C170.520002,15.168 170.874665,15.2533325 171.168,15.424 C171.461335,15.5946675 171.725332,15.850665 171.96,16.192 L171.992,16.192 L171.992,12.576 L174.2,12.576 L174.2,24 L172.088,24 L172.088,23.088 Z M169.672,19.696 C169.672,20.6346714 169.743999,21.341331 169.888,21.816 C170.032001,22.290669 170.343998,22.528 170.824,22.528 C171.314669,22.528 171.631999,22.290669 171.776,21.816 C171.920001,21.341331 171.992,20.6346714 171.992,19.696 C171.992,18.7573286 171.920001,18.050669 171.776,17.576 C171.631999,17.101331 171.314669,16.864 170.824,16.864 C170.343998,16.864 170.032001,17.101331 169.888,17.576 C169.743999,18.050669 169.672,18.7573286 169.672,19.696 Z M175.848,24 L178.152,24 L178.152,12.576 L175.848,12.576 L175.848,24 Z M179.8,15.392 L179.8,24 L182.008,24 L182.008,18.288 C182.008,17.3386619 182.397329,16.864 183.176,16.864 C183.506668,16.864 183.746666,16.9519991 183.896,17.128 C184.045334,17.3040009 184.12,17.6159978 184.12,18.064 L184.12,24 L186.328,24 L186.328,17.616 C186.328,16.7519957 186.138669,16.1280019 185.76,15.744 C185.381331,15.3599981 184.840004,15.168 184.136,15.168 C183.655998,15.168 183.229335,15.2666657 182.856,15.464 C182.482665,15.6613343 182.178668,15.9733312 181.944,16.4 L181.912,16.4 L181.912,15.392 L179.8,15.392 Z" id="Sign-in-with-LinkedI" fill="#FFFFFF"></path>
            <polyline id="Path-2" stroke="#0369A0" points="38 -5.68434189e-14 38 1.89622473 38 37"></polyline>
        </g>
    </g>
</svg>